<svg xmlns="http://www.w3.org/2000/svg" width="15" height="17" viewBox="0 0 15 17">
                                                <path d="M10.05 13.75c.53 1.015 1.21 1.939 2.22 2.672 0 .015-.01.029-.02.044-.36-.056-.73-.097-1.09-.172-1.2-.252-2.27-.763-3.29-1.385-.36-.219-.7-.45-1.04-.693A6.752 6.752 0 0 1 .75 7.5C.75 3.771 3.77.75 7.5.75a6.747 6.747 0 0 1 6.75 6.75 6.756 6.756 0 0 1-4.2 6.25">
                                                </path>
                                            </svg>